<?xml version="1.0" standalone="no"?>
<!DOCTYPE svg PUBLIC "-//W3C//DTD SVG 20010904//EN"
 "http://www.w3.org/TR/2001/REC-SVG-20010904/DTD/svg10.dtd">
<svg version="1.0" xmlns="http://www.w3.org/2000/svg"
 width="1504.000000pt" height="1504.000000pt" viewBox="0 0 1504.000000 1504.000000"
 preserveAspectRatio="xMidYMid meet">
<metadata>
Created by potrace 1.14, written by Peter Selinger 2001-2017
</metadata>
<g transform="translate(0.000000,1504.000000) scale(0.100000,-0.100000)"
fill="#000000" stroke="none">
<path d="M9458 15035 c-2 -2 -18 -5 -37 -8 -18 -3 -179 -78 -357 -166 -178
-89 -328 -161 -334 -161 -5 0 -10 -4 -10 -9 0 -5 -11 -12 -24 -15 -13 -3 -51
-21 -85 -40 -34 -20 -64 -35 -66 -35 -3 0 -83 -38 -177 -85 -94 -48 -177 -86
-184 -86 -7 0 -14 -3 -16 -8 -4 -9 -291 -152 -306 -152 -6 0 -12 -3 -14 -7 -3
-9 -109 -63 -122 -63 -13 0 -90 -82 -103 -110 -14 -31 -31 -90 -31 -110 0 -8
-3 -40 -7 -70 -3 -30 -8 -75 -10 -100 -2 -25 -6 -65 -10 -90 -3 -25 -7 -67
-10 -95 -3 -27 -7 -66 -10 -85 -2 -19 -7 -64 -11 -100 -10 -98 -11 -109 -20
-185 -4 -38 -8 -85 -9 -102 0 -18 -2 -33 -5 -33 -3 0 -6 -26 -8 -58 -2 -31 -5
-73 -8 -92 -4 -31 -11 -103 -17 -165 -2 -18 -10 -19 -94 -20 -51 0 -93 -2 -93
-5 0 -3 -28 -5 -63 -6 -34 -1 -91 -4 -127 -8 -36 -4 -83 -9 -105 -11 -54 -6
-171 -25 -220 -35 -68 -16 -159 -33 -172 -33 -7 0 -13 -4 -13 -9 0 -5 -3 -7
-8 -4 -19 11 -403 -106 -537 -164 -11 -5 -60 -26 -110 -46 -49 -21 -99 -44
-110 -51 -11 -7 -27 -13 -36 -13 -10 0 -19 -3 -21 -7 -1 -5 -41 -28 -88 -52
-71 -36 -175 -96 -258 -146 -45 -28 -180 -117 -202 -135 -14 -10 -50 -37 -80
-60 -51 -37 -92 -69 -144 -113 -11 -10 -41 -35 -65 -55 -64 -54 -328 -317
-388 -387 -78 -91 -149 -181 -216 -275 -34 -47 -65 -89 -70 -95 -14 -17 -137
-215 -137 -221 0 -2 -12 -23 -27 -47 -54 -85 -232 -460 -247 -522 -2 -5 -8
-21 -13 -35 -12 -28 -63 -180 -86 -255 -16 -52 -42 -151 -51 -195 -3 -14 -10
-45 -17 -70 -11 -44 -17 -76 -22 -115 -2 -11 -6 -29 -9 -40 -8 -24 -21 -122
-34 -245 -3 -30 -7 -64 -9 -75 -1 -11 -3 -34 -4 -50 -1 -29 -4 -31 -72 -49
-65 -17 -217 -85 -246 -110 -28 -25 -40 -33 -51 -37 -22 -8 -135 -125 -177
-184 -50 -70 -101 -169 -121 -234 -36 -114 -43 -193 -42 -492 0 -298 2 -317
41 -464 2 -5 9 -20 15 -32 7 -13 10 -23 7 -23 -11 0 68 -136 113 -195 62 -81
146 -161 210 -198 21 -12 42 -27 49 -33 14 -14 180 -81 220 -89 15 -3 48 -8
73 -12 25 -3 52 -7 60 -9 8 -1 22 -3 30 -3 9 -1 16 -9 17 -18 1 -19 11 -101
18 -143 2 -14 7 -47 10 -75 6 -48 9 -76 20 -150 12 -84 15 -105 21 -161 4 -32
8 -70 9 -84 2 -14 4 -25 5 -25 1 0 3 -20 5 -44 3 -25 6 -58 9 -75 3 -17 8 -56
11 -86 4 -30 9 -66 11 -80 9 -56 18 -137 19 -167 0 -18 2 -33 5 -33 3 0 6 -8
6 -17 1 -23 12 -118 19 -158 6 -40 15 -112 19 -155 2 -19 6 -54 10 -77 12 -85
22 -162 31 -233 6 -54 12 -93 19 -140 3 -19 8 -53 10 -75 3 -22 7 -60 10 -85
3 -25 8 -65 10 -90 3 -25 5 -45 6 -45 2 0 6 -29 15 -105 4 -36 8 -67 10 -70 2
-3 6 -38 9 -79 4 -41 9 -77 11 -81 2 -4 7 -34 9 -66 3 -32 8 -72 11 -89 3 -16
7 -49 10 -72 3 -24 7 -62 10 -85 3 -24 8 -59 10 -78 2 -19 6 -53 9 -75 18
-124 19 -135 31 -235 4 -30 8 -62 10 -71 2 -10 6 -44 10 -76 3 -33 7 -70 10
-84 4 -25 13 -95 22 -169 3 -25 6 -56 8 -70 2 -14 4 -25 5 -25 1 0 3 -13 4
-30 3 -34 16 -141 21 -165 1 -8 6 -42 9 -75 4 -33 11 -88 17 -123 5 -35 7 -67
4 -72 -3 -5 -1 -11 4 -14 5 -3 8 -22 7 -41 -1 -19 1 -35 4 -35 3 0 6 -12 7
-27 1 -16 4 -44 6 -63 3 -19 7 -62 11 -95 3 -33 8 -76 11 -95 3 -19 7 -51 10
-70 9 -72 55 -277 80 -360 9 -30 17 -59 19 -65 13 -43 59 -163 98 -255 71
-165 219 -428 275 -488 7 -7 20 -26 30 -42 9 -17 21 -30 25 -30 4 0 8 -4 8
-10 0 -9 25 -40 77 -97 13 -13 23 -26 23 -29 0 -9 249 -254 258 -254 4 0 14
-8 23 -17 8 -10 30 -29 48 -43 18 -14 51 -40 73 -58 22 -17 43 -32 47 -32 7 0
23 -11 68 -50 7 -5 15 -10 17 -10 3 0 32 -17 63 -37 154 -99 496 -246 643
-278 8 -1 35 -8 60 -15 50 -14 70 -18 119 -26 18 -3 43 -8 55 -10 52 -11 135
-21 236 -30 76 -7 1631 -10 1635 -4 2 3 20 5 41 4 21 -1 48 2 61 7 15 5 23 5
23 -2 0 -6 4 -8 9 -5 8 5 23 8 126 22 22 2 72 12 110 20 39 9 79 17 90 18 11
2 27 6 35 9 14 5 59 17 87 23 30 6 229 78 237 85 6 5 17 9 25 9 19 0 289 135
312 156 9 8 19 11 22 7 4 -3 7 -2 7 4 0 6 14 16 30 23 17 7 30 16 30 21 0 5 5
9 10 9 13 0 186 127 265 194 73 62 214 203 275 275 25 29 50 58 55 65 33 37
205 281 205 290 0 2 23 42 50 89 27 47 50 92 50 101 0 9 4 16 9 16 5 0 14 15
21 33 6 17 16 40 20 49 39 73 132 332 135 373 0 6 3 15 6 20 7 11 18 55 25 95
3 14 7 32 10 40 4 8 8 29 11 45 2 17 5 37 7 45 17 82 36 222 41 295 2 22 4 40
5 40 1 0 6 31 14 105 13 111 16 137 22 170 3 19 7 55 10 80 3 25 7 56 9 70 2
14 7 48 10 75 3 28 8 66 11 86 2 20 7 54 9 74 3 21 7 50 10 64 2 14 7 54 10
89 4 35 8 73 10 84 3 11 7 46 11 77 3 31 8 65 11 76 2 11 6 44 8 72 3 29 7 65
9 80 3 16 10 66 16 113 12 83 14 98 25 190 8 65 23 180 30 230 2 14 6 45 9 70
6 60 16 139 22 170 2 14 7 50 10 80 2 30 7 62 9 70 4 14 11 74 21 160 6 58 13
111 18 144 5 29 15 111 21 166 5 46 17 133 21 154 2 12 7 46 10 76 10 83 12
101 19 150 6 46 9 69 20 155 4 28 9 61 11 75 3 14 7 50 9 80 3 30 7 66 10 80
2 14 7 48 10 75 8 68 15 117 19 140 2 11 7 51 11 88 3 37 8 76 10 86 4 20 16
111 21 156 1 17 3 30 4 30 1 0 3 16 4 35 1 19 5 53 9 75 4 22 9 60 12 85 2 25
7 59 9 75 3 17 7 48 10 70 2 22 8 63 11 91 l7 51 66 12 c37 7 89 21 117 32 63
25 195 92 195 99 0 3 13 14 30 23 41 24 128 111 177 177 53 71 115 190 121
230 0 3 6 19 13 35 6 17 13 39 15 50 2 11 8 43 13 70 11 57 8 651 -3 705 -13
60 -43 153 -68 205 -24 52 -67 126 -78 135 -4 3 -11 13 -16 22 -21 39 -137
149 -204 195 -39 26 -145 85 -160 88 -3 1 -32 10 -65 20 -33 10 -66 20 -73 21
-25 5 -30 15 -37 89 -5 63 -16 158 -20 185 -2 14 -7 40 -10 58 -3 17 -7 45 -9
62 -7 48 -27 141 -43 200 -8 30 -15 62 -15 70 -1 8 -6 21 -12 29 -9 12 -8 13
2 7 11 -7 12 -4 3 13 -7 11 -23 60 -37 108 -14 49 -34 112 -44 141 -11 28 -20
53 -19 55 2 9 -91 239 -128 317 -20 41 -37 78 -37 81 -2 13 -42 85 -51 91 -5
4 -7 8 -3 8 4 0 -9 27 -28 61 -18 33 -34 65 -34 70 0 5 -4 9 -9 9 -5 0 -11 8
-15 18 -22 66 -241 381 -380 547 -138 164 -320 347 -481 482 -122 102 -131
109 -250 193 -38 27 -75 54 -82 60 -7 5 -16 10 -22 10 -5 0 -11 4 -13 8 -4 9
-80 57 -91 57 -4 0 -11 5 -15 10 -4 6 -25 19 -47 30 -22 11 -42 23 -45 27 -10
13 -281 150 -391 197 -111 47 -269 107 -299 113 -8 2 -17 6 -20 10 -3 4 -17 9
-30 11 -21 4 -72 19 -190 57 -14 4 -24 12 -23 17 1 6 5 41 8 79 3 38 7 78 9
89 2 11 7 52 10 90 4 39 11 100 17 138 5 37 8 70 8 75 -1 4 0 9 1 12 1 3 3 24
5 48 2 23 6 68 10 100 3 31 8 77 11 102 8 71 9 72 107 121 50 26 142 72 203
103 61 31 116 56 123 56 6 0 11 3 11 8 0 4 42 27 93 52 50 24 95 48 98 53 3 5
9 8 13 8 6 -1 501 245 599 298 136 74 235 239 230 386 -1 46 -14 127 -22 143
-5 9 -31 62 -58 116 -77 159 -183 254 -320 284 -38 9 -158 14 -165 7z m-1658
-2918 c36 -4 76 -9 90 -12 14 -4 45 -9 70 -11 42 -4 85 -11 85 -14 0 -1 16 -3
35 -6 102 -13 487 -122 518 -146 6 -6 12 -8 12 -5 0 22 497 -218 508 -245 2
-4 9 -8 16 -8 21 0 290 -185 373 -256 12 -11 35 -29 51 -41 112 -87 330 -313
472 -489 69 -86 189 -266 272 -409 24 -41 158 -312 158 -320 0 -3 8 -25 19
-48 27 -61 93 -250 106 -304 3 -10 14 -52 26 -93 11 -41 22 -83 24 -93 3 -10
7 -26 9 -35 3 -9 8 -33 10 -52 3 -20 7 -47 10 -60 4 -14 8 -38 10 -55 3 -16 7
-39 9 -50 3 -11 8 -55 12 -97 l7 -78 -321 0 -321 0 -1 23 c-1 58 -19 155 -51
282 -11 44 -20 88 -21 97 -1 10 -4 18 -8 18 -3 0 -9 15 -12 33 -5 32 -63 197
-94 267 -35 81 -122 250 -161 314 -23 37 -42 72 -42 77 0 5 -4 9 -10 9 -5 0
-10 6 -10 14 0 8 -3 16 -8 18 -4 2 -29 35 -56 73 -27 39 -54 75 -60 80 -6 6
-27 30 -46 55 -36 47 -164 184 -214 229 -15 14 -48 45 -73 69 -24 23 -47 42
-49 42 -3 0 -31 21 -63 48 -93 74 -105 83 -128 95 -13 5 -23 13 -23 17 0 4
-13 13 -30 20 -16 7 -30 16 -30 21 0 5 -5 9 -10 9 -6 0 -34 15 -63 33 -29 17
-83 48 -122 67 -38 19 -73 39 -76 43 -3 5 -10 9 -15 9 -12 1 -41 12 -96 38
-26 12 -53 23 -60 24 -7 2 -20 6 -28 9 -78 32 -368 118 -388 116 -4 -1 -9 0
-12 1 -6 2 -25 5 -90 16 -25 4 -52 9 -60 10 -8 2 -37 6 -65 8 -27 3 -70 8 -95
11 -58 7 -348 7 -420 1 -64 -6 -134 -14 -170 -21 -14 -2 -43 -7 -65 -10 -23
-3 -52 -8 -65 -11 -14 -3 -36 -7 -50 -10 -14 -2 -36 -7 -50 -11 -14 -3 -30 -7
-36 -9 -23 -4 -129 -35 -144 -41 -8 -3 -17 -7 -20 -8 -73 -22 -96 -31 -102
-40 -4 -5 -8 -7 -8 -3 0 7 -85 -27 -195 -77 -72 -33 -255 -135 -272 -151 -7
-7 -26 -18 -43 -26 -16 -7 -30 -16 -30 -20 0 -5 -7 -8 -15 -8 -8 0 -15 -3 -15
-7 0 -5 -17 -19 -38 -33 -49 -33 -52 -36 -84 -62 -15 -13 -66 -57 -115 -98
-48 -41 -131 -121 -183 -178 -116 -127 -107 -116 -153 -177 -55 -73 -71 -94
-84 -110 -7 -7 -13 -17 -13 -21 0 -4 -10 -21 -23 -38 -31 -41 -118 -191 -141
-243 -11 -24 -22 -43 -26 -43 -4 0 -7 -6 -7 -12 0 -7 -16 -44 -34 -83 -18 -38
-34 -74 -35 -80 0 -5 -6 -21 -12 -35 -9 -21 -20 -51 -27 -70 -1 -3 -4 -12 -7
-20 -38 -109 -84 -292 -104 -417 -5 -26 -9 -51 -10 -55 -1 -5 -2 -21 -3 -38
l-1 -30 -321 0 -322 0 7 63 c12 103 21 165 31 212 2 6 6 28 9 50 4 22 13 67
21 100 9 33 17 69 20 80 2 11 13 52 25 90 12 39 23 77 25 85 17 69 100 278
156 395 18 39 34 73 34 77 0 4 6 13 13 19 6 7 12 17 12 22 0 9 149 267 160
277 3 3 23 32 45 65 22 33 42 62 45 65 3 3 17 21 30 40 27 39 26 37 138 170
88 104 304 319 367 365 22 17 47 37 55 45 52 53 322 237 430 294 30 16 62 34
70 41 8 7 26 16 40 20 14 4 32 13 40 20 8 7 26 16 40 20 14 4 27 11 30 14 7
10 194 86 203 83 4 -1 7 2 7 6 0 5 6 9 13 10 6 0 64 19 127 41 97 34 258 80
335 96 66 14 125 26 160 30 22 3 51 8 65 10 14 3 45 7 70 10 25 3 65 7 89 10
25 3 46 7 48 9 5 5 521 -1 593 -7z m-155 -1251 c138 -13 282 -37 303 -50 5 -3
21 -7 36 -10 95 -17 343 -116 461 -185 63 -36 197 -121 205 -131 3 -3 23 -18
45 -35 101 -75 250 -223 336 -334 33 -42 64 -82 71 -90 23 -28 128 -206 128
-217 0 -7 3 -14 8 -16 17 -7 142 -312 142 -346 0 -10 3 -22 7 -26 4 -3 8 -14
9 -24 1 -9 9 -47 17 -83 9 -36 18 -80 20 -97 l5 -32 -353 0 -353 0 -7 28 c-5
15 -10 36 -12 47 -2 11 -8 24 -13 29 -6 6 -10 18 -10 28 0 46 -135 290 -211
382 -64 78 -246 246 -267 246 -5 0 -15 7 -22 15 -7 8 -24 21 -39 28 -39 20
-74 41 -91 54 -8 6 -18 12 -23 12 -4 0 -28 9 -54 21 -47 20 -186 65 -233 74
-14 3 -36 7 -49 10 -65 14 -296 27 -315 17 -5 -2 -28 -6 -50 -7 -53 -5 -93
-10 -131 -19 -16 -4 -34 -8 -40 -9 -30 -7 -161 -49 -170 -54 -5 -4 -12 -7 -15
-7 -25 -2 -237 -122 -272 -154 -10 -9 -29 -25 -44 -36 -50 -37 -168 -159 -218
-225 -42 -56 -61 -87 -116 -180 -22 -39 -61 -136 -85 -214 l-27 -86 -355 0
c-330 0 -355 1 -349 17 4 9 9 37 12 62 3 25 8 50 12 55 3 6 7 23 9 39 3 25 51
184 70 227 3 8 7 17 8 20 9 26 18 48 26 62 5 10 9 24 9 32 0 8 3 16 8 18 4 2
27 44 52 93 25 50 48 95 53 100 4 6 25 37 47 70 51 78 62 93 80 115 8 10 31
38 50 62 96 118 274 277 410 368 36 24 77 51 91 61 61 41 337 169 379 175 8 2
58 16 110 32 52 16 115 33 140 37 71 11 83 13 115 19 17 3 73 9 125 12 52 4
96 7 97 8 4 3 171 -3 228 -8z m3590 -2346 c6 -1 14 -2 18 -1 15 2 64 -28 94
-59 57 -58 60 -82 59 -356 -2 -233 -3 -252 -23 -289 -31 -59 -91 -105 -148
-112 -59 -7 -7491 -5 -7525 2 -65 14 -112 50 -143 110 -19 37 -21 58 -22 285
-2 255 3 288 45 346 24 32 75 65 111 73 31 6 7511 8 7534 1z m-4411 -1510 c-1
-14 -4 -56 -8 -95 -4 -38 -10 -88 -12 -110 -4 -45 -13 -133 -19 -185 -9 -81
-15 -137 -19 -176 -13 -135 -17 -173 -21 -204 -8 -66 -17 -145 -20 -180 -3
-36 -15 -150 -21 -205 -1 -16 -6 -59 -9 -95 -3 -36 -8 -78 -11 -95 -3 -16 -6
-46 -8 -65 -2 -19 -4 -41 -5 -48 0 -8 -10 -12 -23 -11 -13 2 -29 0 -35 -4 -7
-5 -13 -4 -13 2 0 6 -6 9 -12 6 -7 -2 -69 -6 -138 -9 -69 -3 -136 -8 -150 -11
-14 -3 -45 -8 -70 -11 -25 -3 -72 -12 -105 -19 -33 -8 -75 -17 -94 -20 -18 -3
-58 -14 -87 -25 -30 -10 -54 -17 -54 -15 0 11 -300 -109 -369 -148 -19 -10
-58 -30 -85 -45 -50 -25 -300 -185 -322 -206 -7 -6 -24 -20 -39 -30 -14 -11
-36 -28 -48 -38 -109 -93 -144 -125 -226 -205 -52 -51 -98 -93 -101 -93 -3 0
-7 19 -8 43 -3 46 -10 112 -12 112 -3 0 -10 44 -14 87 -2 24 -5 43 -6 43 0 0
-3 22 -5 50 -4 45 -9 85 -20 155 -2 14 -7 50 -10 80 -4 30 -9 69 -11 85 -2 17
-7 50 -9 75 -3 25 -7 59 -10 75 -3 17 -7 50 -10 75 -4 42 -9 71 -21 145 -2 17
-6 50 -9 75 -5 62 -14 133 -26 210 -6 36 -12 88 -15 115 -3 28 -7 61 -9 75
-12 74 -22 152 -30 230 -2 19 -4 35 -5 35 -1 0 -3 14 -4 30 -4 54 -18 155 -30
225 -3 14 -7 50 -11 80 -3 30 -7 71 -10 90 -3 19 -7 53 -10 75 -2 22 -7 51 -9
64 -3 13 -4 27 -2 30 2 3 550 6 1218 6 l1213 0 -1 -25z m3806 5 c0 -11 -7 -65
-15 -120 -15 -110 -35 -260 -40 -315 -4 -33 -7 -58 -21 -160 -4 -25 -8 -56 -9
-70 -2 -14 -4 -25 -5 -25 0 0 -3 -18 -5 -40 -4 -49 -15 -141 -21 -169 -2 -12
-6 -41 -9 -66 -3 -25 -7 -61 -10 -80 -3 -19 -7 -53 -10 -75 -4 -39 -11 -91
-20 -150 -2 -16 -7 -57 -10 -90 -4 -33 -9 -71 -11 -85 -3 -14 -7 -42 -9 -63
-16 -171 -28 -217 -61 -252 -18 -19 -35 -35 -38 -35 -3 0 -22 -16 -43 -35 -21
-19 -46 -38 -55 -41 -10 -3 -18 -10 -18 -15 0 -5 -7 -9 -15 -9 -8 0 -15 -4
-15 -10 0 -5 -7 -10 -15 -10 -8 0 -15 -5 -15 -12 0 -6 -3 -8 -6 -5 -4 4 -19
-2 -33 -12 -43 -30 -149 -80 -155 -74 -3 4 -6 2 -6 -4 0 -10 -46 -27 -53 -21
-2 2 -15 -5 -30 -15 -15 -9 -27 -15 -27 -13 0 3 -19 -2 -42 -10 -24 -9 -50
-17 -58 -19 -33 -8 -158 -34 -185 -39 -138 -26 -386 -26 -615 -2 -28 3 -152
27 -261 51 -8 2 -38 10 -66 18 -28 9 -54 13 -57 10 -3 -4 -6 -2 -6 3 0 5 -11
11 -24 12 -13 1 -37 7 -52 13 -16 7 -31 13 -34 14 -44 11 -206 72 -234 87 -10
5 -26 11 -36 13 -10 2 -46 17 -79 34 -34 17 -65 31 -69 31 -4 1 -43 19 -87 40
-93 44 -171 79 -235 105 l-46 19 8 64 c4 35 7 67 7 70 -1 4 -1 9 1 12 1 3 3
22 5 42 5 64 16 166 20 190 2 13 6 55 9 94 4 39 9 81 11 94 2 12 7 54 10 93 3
40 7 83 9 97 3 14 8 57 11 95 3 39 7 84 9 100 2 17 7 62 10 100 4 39 9 81 11
95 2 14 7 54 11 90 4 36 8 76 9 90 2 14 6 59 9 100 4 41 10 89 12 105 3 17 7
55 10 85 3 46 10 95 13 95 1 0 627 0 1391 0 1386 0 1390 0 1390 -20z m-4015
-2037 c-7 -18 -27 -206 -29 -270 -1 -16 -3 -28 -6 -28 -3 0 -5 -15 -6 -33 -1
-40 -12 -161 -18 -207 -7 -48 -18 -147 -22 -195 -8 -90 -11 -112 -18 -123 -3
-6 -2 -13 4 -17 6 -4 7 -11 4 -17 -7 -11 -10 -31 -19 -123 -11 -108 -15 -152
-20 -190 -3 -22 -7 -67 -10 -99 -2 -32 -7 -75 -9 -95 -3 -20 -8 -61 -11 -91
-3 -30 -8 -71 -10 -90 -3 -19 -7 -57 -9 -85 -3 -27 -8 -79 -12 -115 -9 -84
-10 -184 0 -238 9 -54 57 -148 103 -201 37 -44 133 -111 158 -111 7 0 16 -4
19 -9 6 -9 83 -23 196 -37 61 -7 149 -6 162 2 5 3 21 8 36 10 53 10 137 59
192 114 96 95 127 185 145 415 3 39 8 86 11 105 6 45 17 145 29 270 2 19 6 64
10 100 3 36 8 81 11 100 3 19 5 42 5 50 0 8 5 49 9 90 5 41 12 102 15 135 3
33 8 78 11 99 3 22 7 62 10 90 2 28 6 67 8 86 2 19 7 64 10 100 7 80 14 149
23 215 5 44 9 85 12 148 1 24 11 22 99 -19 133 -63 256 -118 302 -137 14 -5
33 -13 42 -18 10 -5 22 -9 27 -9 5 0 25 -7 45 -15 20 -8 38 -15 41 -15 3 0 19
-7 35 -15 17 -9 35 -13 40 -10 6 3 10 1 10 -6 0 -7 3 -9 7 -6 3 4 11 3 17 -2
6 -6 23 -11 36 -13 14 -2 35 -9 48 -16 12 -7 22 -10 22 -8 0 3 19 -2 43 -10
23 -9 51 -17 62 -20 44 -9 121 -27 135 -32 22 -7 30 -9 80 -17 24 -4 48 -9 52
-11 4 -3 26 -6 50 -9 24 -2 57 -7 73 -10 116 -25 452 -37 605 -22 36 4 88 9
115 12 49 5 214 36 260 49 6 2 24 6 40 10 104 26 396 141 403 158 2 4 8 8 12
8 5 0 8 -25 7 -55 -1 -30 -4 -55 -8 -55 -3 0 -6 -17 -7 -39 -2 -21 -5 -49 -8
-62 -2 -13 -6 -44 -9 -69 -2 -25 -6 -58 -9 -75 -3 -16 -7 -52 -11 -80 -3 -27
-7 -61 -10 -75 -3 -14 -8 -47 -10 -75 -3 -27 -7 -63 -9 -80 -2 -16 -7 -55 -10
-85 -4 -30 -9 -66 -11 -80 -3 -14 -7 -45 -10 -70 -3 -25 -8 -56 -10 -70 -4
-28 -13 -104 -20 -165 -2 -22 -6 -53 -9 -70 -4 -27 -10 -75 -22 -170 -2 -16
-6 -50 -8 -75 -3 -25 -10 -71 -15 -104 -6 -32 -10 -61 -9 -65 0 -3 0 -8 -2
-11 -2 -7 -7 -44 -14 -115 -3 -33 -9 -74 -12 -92 -3 -18 -7 -49 -9 -70 -1 -21
-4 -38 -5 -38 -1 0 -3 -18 -5 -40 -4 -55 -13 -110 -27 -175 -14 -66 -15 -69
-18 -72 -1 -2 -4 -16 -6 -32 -15 -89 -108 -326 -182 -460 -47 -87 -140 -235
-158 -251 -5 -5 -22 -26 -36 -45 -27 -37 -138 -163 -138 -157 0 2 -28 -24 -62
-57 -35 -34 -76 -71 -93 -84 -171 -128 -225 -162 -355 -224 -120 -57 -170 -79
-184 -83 -6 -1 -18 -5 -26 -8 -25 -10 -153 -46 -183 -51 -15 -3 -35 -7 -45
-10 -20 -6 -83 -16 -132 -21 -19 -1 -35 -4 -35 -5 0 -8 -190 -10 -840 -10
-754 -1 -875 2 -992 24 -389 73 -721 247 -997 522 -64 64 -136 146 -136 155 0
5 -3 9 -7 9 -5 0 -19 17 -33 38 -14 20 -30 43 -37 50 -44 46 -205 346 -228
422 -1 3 -8 21 -16 40 -14 30 -19 47 -34 103 -2 4 -3 8 -5 10 -1 1 -3 9 -5 17
-1 8 -10 40 -19 71 -9 31 -19 67 -21 80 -3 13 -8 38 -11 54 -12 54 -20 108
-39 275 -9 81 -27 217 -31 240 -2 14 -7 49 -10 79 -3 30 -7 62 -9 71 -4 21
-16 113 -21 160 -1 19 -6 53 -9 75 -4 22 -8 54 -10 70 -2 28 -5 50 -21 173 -3
24 -7 51 -9 60 -1 10 -6 42 -9 73 -4 31 -8 65 -10 75 -12 66 -16 154 -7 154 6
0 11 5 11 11 0 7 32 56 70 110 151 212 340 406 535 551 6 4 24 19 41 33 18 14
37 25 43 25 6 0 11 5 11 10 0 6 4 10 9 10 6 0 29 13 53 29 164 110 463 229
643 256 17 3 41 7 55 10 14 3 50 8 80 11 30 4 56 7 57 8 1 1 48 3 103 5 79 2
99 0 95 -11z"/>
</g>
</svg>
